<?xml version="1.0" encoding="utf-8"?>
<!-- Generator: Adobe Illustrator 20.1.0, SVG Export Plug-In . SVG Version: 6.00 Build 0)  -->
<svg version="1.1" id="Layer_1" xmlns="http://www.w3.org/2000/svg" xmlns:xlink="http://www.w3.org/1999/xlink" x="0px" y="0px"
	 viewBox="0 0 2553 885.9" style="enable-background:new 0 0 2553 885.9;" xml:space="preserve">
<style type="text/css">
	.st0{fill:#30393E;}
</style>
<g>
	<path class="st0" d="M0,700c18.1-0.3,31.6,1.3,47.4,5.1c28,6.6,51.1,17.7,71.6,30.7c14.4,9.1,25.8,20.1,38.8,30.2
		c1.6,1.2,5.1,2.5,7.2,2.3c47.7-5,92.7,0.1,134.7,15c5,1.8,8.3,1.8,12.8-0.4c19.7-9.8,41-17.7,65.2-22.4
		c38.1-7.5,76.4-8.1,114.7-1.5c5.8,1,7.8-1.1,10.6-2.7c16.5-9.9,34.9-17.9,55.7-23.7c37.5-10.6,76.4-13.4,116.9-9.2
		c39.7,4.2,74,15.2,102.8,32.5c5.6,3.4,8.8,0.5,12-1.1c17.9-9,37.6-16.3,59.6-20.6c65-12.8,125.9-7.8,181.9,17.2
		c4.2,1.9,6.6,1.8,9.4-1c16.2-15.6,36-29.1,59.7-40.4c5.3-2.5,11.4-4.2,16.7-6.6c48.5-21.7,103.1-28.8,161.6-26.4
		c31.9,1.3,63.7,5.3,90.5,16c24.5,9.7,52.2,16.9,71.6,31.2c5.8,4.3,12,8.5,17.6,12.8c3.2,2.5,6.1,3.3,11.5,1.9
		c73.5-19.4,142.7-14.8,206.6,15.5c11.1,5.3,21.3,11.6,30.4,18.2c5.1,3.7,8,3.5,13.6,1.2c18.6-7.7,38.9-13.1,60.5-16
		c61.8-8.3,118.2-1.1,168.5,23.2c7.7,3.7,14.7,8,21.6,12.4c3.8,2.4,7,2.8,11.9,1.3c33.8-11.1,29-15.1,65.2-21.7
		c29.8-2.9,26.4-4.9,57-4.5c22.3,0.7,36.9,6.4,74.3,19.5c11.7,5,38.4,25,109.7,25.2c88.9-6.2,112.7-37.7,144.9-65.2
		c26.2-26.5,69.4-47,118.2-48v185.9c-1362.9,0-1190,0-2552.9,0"/>
</g>
</svg>
