<?xml version="1.0" encoding="utf-8"?>
<!-- Generator: Adobe Illustrator 20.1.0, SVG Export Plug-In . SVG Version: 6.00 Build 0)  -->
<svg version="1.1" id="Layer_1" xmlns="http://www.w3.org/2000/svg" xmlns:xlink="http://www.w3.org/1999/xlink" x="0px" y="0px"
	 viewBox="0 0 2553 885.9" style="enable-background:new 0 0 2553 885.9;" xml:space="preserve">
<style type="text/css">
	.st0{fill:#30393E;}
</style>
<g>
	<path class="st0" d="M-1.5,886.2C-3.2,740-1.3,582.4-1.3,442.7c4.3-5.8,9.5-12.8,14-18.5c14.8-18.7,33.4-32,55.6-40.5
		c13.6-5.3,27.1-11.4,41.9-12c12.2-0.5,24.5,0.2,36.7,0.8c3.9,0.2,6.8,0.2,9.7-3c17.7-19.5,39.3-32.3,65-38.1
		c3.2-0.7,6.4-1.3,10.1-2c-2.1-17-4.1-33.7-6.4-51.9c-8.8,5.8-16.8,11-25.9,16.9c3-15.3,5.8-29.5,8.6-43.7c-0.4-0.4-0.9-0.9-1.3-1.3
		c-6,4-12,8.1-18.7,12.6c0-4.4,0-8.3,0-12.2c0-0.6,0.5-1.3,0.5-1.9c-1.7-12.1,6.9-18.1,14.9-23.8c29-20.6,69.2-19.6,97.2,2.2
		c3.4,2.6,6.9,5.6,9,9.2c1.8,3,2,7.1,2.4,10.8c0.6,4.9,0.6,9.8,1,15.9c-6.7-4.6-12.5-8.5-18.2-12.5c-0.6,0.3-1.1,0.6-1.7,0.8
		c2.8,14.3,5.5,28.6,8.5,43.8c-8.7-5.7-16.9-11-26.2-17.1c-2.2,18.3-4.3,35.5-6.3,52.8c22.7,3.7,42.1,12.8,58.9,26.9
		c19.4,16.2,33.5,36.2,40.7,60.7c1.3,4.4,1.9,9.1,3.3,13.5c0.5,1.4,2.3,3.2,3.8,3.4c22.2,3.8,42.4,12.3,59.5,27
		c6.6,5.7,12.6,12.1,18.5,18.6c2.6,2.8,4.8,4.7,9,4.5c16.4-0.8,32.6,0.9,48.2,5.9c23.7,7.6,46,17.7,65,34.5
		c18,16,32.6,34.5,42.8,56.2c7.8,16.4,13,33.7,14.8,51.9c0.4,4.1,1.8,6.6,6.2,8.2c17.9,6.7,33.8,17,47.4,30.4c3,3,5.5,3.6,9.2,1.5
		c21.9-12.2,45.5-16.6,70.2-14.6c24.4,2,46.4,10.7,65.7,25.9c1.2,0.9,2.7,1.5,3.5,2.7c5,7.4,12.5,7,20.3,7.3c13,0.6,25.4-2.3,38-4.3
		c21.6-3.5,42.9-2.1,64.3,2.7c10.7,2.4,19.7,8.1,29.6,11.9c17.5,6.6,31.9,17.7,44.7,30.7c9,9.1,16.1,20.1,24.2,30.2
		c1,1.2,3.2,2.5,4.5,2.3c29.8-5,57.9,0.1,84.1,15c3.1,1.8,5.2,1.8,8-0.4c12.3-9.8,25.6-17.7,40.7-22.4c23.8-7.5,47.7-8.1,71.6-1.5
		c3.6,1,4.9-1.1,6.6-2.7c10.3-9.9,21.8-17.9,34.8-23.7c23.4-10.6,47.7-13.4,73-9.2c24.8,4.2,46.2,15.2,64.2,32.5
		c3.5,3.4,5.5,0.5,7.5-1.1c11.2-9,23.5-16.3,37.2-20.6c40.6-12.8,78.6-7.8,113.6,17.2c2.6,1.9,4.1,1.8,5.9-1
		c10.1-15.6,22.5-29.1,37.3-40.4c3.3-2.5,7.1-4.2,10.4-6.6c30.3-21.7,64.4-28.8,100.9-26.4c19.9,1.3,39.8,5.3,56.5,16
		c15.3,9.7,32.6,16.9,44.7,31.2c3.6,4.3,7.5,8.5,11,12.8c2,2.5,3.8,3.3,7.2,1.9c45.9-19.4,89.1-14.8,129,15.5
		c6.9,5.3,13.3,11.6,19,18.2c3.2,3.7,5,3.5,8.5,1.2c11.6-7.7,24.3-13.1,37.8-16c38.6-8.3,73.8-1.1,105.2,23.2
		c4.8,3.7,9.2,8,13.5,12.4c2.4,2.4,4.4,2.8,7.4,1.3c21.1-11.1,18.1-15.1,40.7-21.7c18.6-2.9,16.5-4.9,35.6-4.5
		c13.9,0.7,23.1,6.4,46.4,19.5c7.3,5,24,25,68.5,25.2c55.5-6.2,61.8-43.3,90.5-65.2c21-16,46.3-19.1,74.3-7.8v146"/>
	<path class="st0" d="M220,87.4c-1.3,5-2.3,8.8-3.7,13.8c23.3-4.1,45.6-4.6,69.1,0.1c-1.2-4.9-2.2-8.7-3.5-13.6
		c5.3,0.7,10.3,1.3,15.2,2.1c12.2,1.9,12.3,2,13.7,14.1c3.1,25.5,3.2,51,0.1,76.5c-0.4,3.2-2.3,3.8-4.6,4.1
		c-8.4,1.2-16.7,2.8-25.2,3.2c-15.1,0.8-30.3,1.5-45.4,1c-15.2-0.5-30.3-2.7-45.6-4.1c-2.3-19.4-4.4-37.6-2.4-56.1
		c1.2-11,2-22.1,3.3-33.2c0.2-1.5,1.5-3.8,2.7-4C202.2,89.9,210.8,88.8,220,87.4z"/>
	<path class="st0" d="M192,86.8c2.7-13.9,8.5-26,15.4-37.5c9.2-15.3,19.8-29.5,32.7-41.7c11.1-10.5,10.3-9.5,20,0
		c19.9,19.5,35.7,41.8,45.5,68c1.3,3.5,1.9,7.2,3,11.3c-9.4-1.1-18.3-2-27.1-3.4c-1.6-0.2-3.1-2.2-4.2-3.7
		c-7.2-9.1-14-18.4-21.4-27.2c-3.5-4.2-6-3.8-10.1,0.1c-8.7,8.1-15.9,17.3-21.7,27.7c-0.8,1.4-2.5,3-3.9,3.2
		C211.1,84.8,201.9,85.7,192,86.8z"/>
	<path class="st0" d="M347.2,222.3c-6-17.2-12.4-32.9-31.4-37.6c1-17.1,1.9-34.1,2.9-50.9C344.9,142.1,364.2,176.6,347.2,222.3z"/>
	<path class="st0" d="M182.3,133.3c0.8,17.1,1.5,34,2.3,51.2c-18.8,4.9-25.4,20.8-31.1,37.5C138.2,181.8,150.6,146,182.3,133.3z"/>
</g>
</svg>
